<svg xmlns="http://www.w3.org/2000/svg" viewBox="0 0 100 100"><circle cx="50" cy="50" r="50" fill="#1a4269"/><path d="M31.65,83.24C29.32,82.89 28.08,81.62 27.98,79.49C27.94,78.53 27.95,78.51 28.95,72.92C29.07,72.20 29.24,71.29 29.30,70.88C29.37,70.47 29.62,69.06 29.86,67.75C30.09,66.43 30.43,64.49 30.61,63.44C31.11,60.59 31.22,59.96 32.03,55.37C32.45,53.05 32.84,50.82 32.91,50.42C32.99,50.01 33.17,48.95 33.33,48.06C33.76,45.66 33.98,44.40 34.12,43.52C34.20,43.09 34.34,42.27 34.44,41.71C35.18,37.52 35.57,35.32 36.39,30.69C36.90,27.79 37.40,24.96 37.50,24.40C37.60,23.84 37.76,22.88 37.87,22.27C37.98,21.66 38.12,20.82 38.19,20.42C38.80,16.72 40.70,14.90 44.35,14.53C46.12,14.35 68.13,14.47 68.94,14.66C71.91,15.38 72.68,17.01 71.96,21.06C71.37,24.36 70.82,27.49 70.65,28.47C70.55,29.03 70.41,29.84 70.33,30.28C70.09,31.58 69.72,33.70 69.58,34.54C69.33,36.04 69.19,36.67 69.07,36.81C68.96,36.95 59.58,37.03 59.22,36.89C58.97,36.79 58.96,36.88 59.86,31.81C60.10,30.48 60.35,29.06 60.42,28.66C60.49,28.25 60.71,26.97 60.92,25.81C61.31,23.59 61.31,23.46 60.95,23.33C60.62,23.20 48.62,23.21 48.26,23.34C47.93,23.46 47.89,23.53 47.73,24.49C47.66,24.90 47.42,26.29 47.19,27.59C46.68,30.43 45.80,35.39 45.61,36.48C45.53,36.91 45.26,38.48 45.00,39.95C44.74,41.43 44.45,43.10 44.35,43.66C44.03,45.51 43.88,46.33 43.65,47.64C43.52,48.35 43.36,49.27 43.29,49.68C43.22,50.08 42.72,52.92 42.18,55.97C41.64,59.03 41.09,62.13 40.96,62.87C40.75,64.12 40.22,67.11 39.82,69.35C38.91,74.37 38.94,74.19 39.16,74.37C39.37,74.54 51.65,74.64 52.08,74.48C52.33,74.38 52.39,74.16 52.82,71.75C53.05,70.45 53.59,67.39 54.02,64.94C54.46,62.49 54.81,60.46 54.81,60.43C54.81,60.41 54.88,60.32 54.96,60.24C55.18,60.02 64.73,60.02 64.91,60.23C65.01,60.35 64.99,60.59 64.83,61.51C64.72,62.13 64.38,64.03 64.08,65.74C63.78,67.45 63.34,69.93 63.10,71.25C62.87,72.57 62.53,74.51 62.35,75.56C62.17,76.60 61.95,77.82 61.85,78.28C61.32,80.72 59.74,82.37 57.27,83.07C56.49,83.29 33.04,83.44 31.65,83.24Z" fill="#fff"/></svg>
